<svg width="104" height="52" viewBox="0 0 104 52" fill="none" xmlns="http://www.w3.org/2000/svg">
<rect x="0.333374" width="103.667" height="51.5" rx="5" fill="#E60023"/>
<path d="M52.1671 16.25C43.2149 16.25 35.9557 20.5033 35.9557 25.7498C35.9557 29.6397 39.9474 32.9811 45.6595 34.4503C45.6137 33.7871 45.6507 32.9903 45.9417 32.2696C46.2535 31.4979 48.0275 27.0931 48.0275 27.0931C48.0275 27.0931 47.5096 26.4866 47.5096 25.5902C47.5096 24.1826 48.9021 23.1306 50.6354 23.1306C52.1098 23.1306 52.8222 23.7795 52.8222 24.5567C52.8222 25.4253 51.8774 26.7236 51.3911 27.9278C50.9846 28.936 52.2536 29.7576 53.9499 29.7576C57.0213 29.7576 59.0896 27.446 59.0896 24.7068C59.0896 22.6254 56.6971 21.067 52.3446 21.067C47.4269 21.067 44.3634 23.2158 44.3634 25.616C44.3634 26.4442 44.7799 27.0276 45.4325 27.4789C45.7322 27.6867 45.7738 27.7702 45.6653 28.0089C45.5876 28.1836 45.4088 28.6042 45.3352 28.7711C45.2276 29.0117 44.8951 29.0975 44.5235 29.0088C42.2585 28.4669 41.2035 27.0134 41.2035 25.3795C41.2035 22.6807 45.0871 19.4452 52.7894 19.4452C58.9791 19.4452 63.0526 22.0698 63.0526 24.8877C63.0526 28.6137 59.5169 31.3978 54.3053 31.3978C52.5558 31.3978 50.9093 30.8432 50.3453 30.2138C50.3453 30.2138 49.4042 32.4021 49.2051 32.8254C48.8613 33.5579 48.1884 34.2901 47.5732 34.8603C49.0313 35.1124 50.5714 35.25 52.1675 35.25C61.1193 35.2495 68.3777 30.9959 68.3777 25.7498C68.3777 20.5033 61.1193 16.25 52.1671 16.25Z" fill="white"/>
</svg>
