<svg width="105" height="52" viewBox="0 0 105 52" fill="none" xmlns="http://www.w3.org/2000/svg">
<rect x="0.666687" width="103.667" height="51.5" rx="5" fill="#0077FF"/>
<path fill-rule="evenodd" clip-rule="evenodd" d="M64.7671 19.2657C64.9459 18.6802 64.7671 18.25 63.9164 18.25H61.1033C60.388 18.25 60.0582 18.6216 59.8794 19.0315C59.8794 19.0315 58.4487 22.4565 56.4221 24.6812C55.7665 25.3253 55.4684 25.5302 55.1108 25.5302C54.932 25.5302 54.6637 25.3253 54.6637 24.7399V19.2657C54.6637 18.5631 54.4656 18.25 53.8694 18.25H49.4487C49.0017 18.25 48.7329 18.5761 48.7329 18.8851C48.7329 19.5512 49.7462 19.7048 49.8506 21.5783V25.6474C49.8506 26.5394 49.6866 26.7012 49.3289 26.7012C48.3753 26.7012 46.0555 23.2609 44.6796 19.3242C44.41 18.5591 44.1395 18.25 43.4206 18.25H40.6074C39.8036 18.25 39.6429 18.6216 39.6429 19.0315C39.6429 19.7633 40.5966 23.3933 44.0836 28.1941C46.4082 31.4727 49.6834 33.25 52.6637 33.25C54.452 33.25 54.6732 32.8553 54.6732 32.1754V29.6974C54.6732 28.9079 54.8426 28.7503 55.4088 28.7503C55.8261 28.7503 56.5413 28.9553 58.2103 30.5361C60.1178 32.4096 60.4322 33.25 61.5051 33.25H64.3183C65.122 33.25 65.5239 32.8553 65.292 32.0762C65.0383 31.2999 64.1277 30.1735 62.9193 28.8382C62.2636 28.077 61.2801 27.2574 60.982 26.8475C60.5648 26.3206 60.684 26.0864 60.982 25.6181C60.982 25.6181 64.4095 20.8757 64.7671 19.2657Z" fill="white"/>
</svg>
