<svg width="158" height="52" viewBox="0 0 158 52" fill="none" xmlns="http://www.w3.org/2000/svg">
<rect y="0.5" width="158" height="51.5" rx="5" fill="#2E22D9"/>
<path d="M91.3679 23.7031C91.5638 23.582 91.855 23.6953 91.855 23.8867V31.875C91.855 32.9102 90.7754 33.75 89.4447 33.75H68.5553C67.2246 33.75 66.145 32.9102 66.145 31.875V23.8906C66.145 23.6953 66.4312 23.5859 66.6321 23.707C67.7569 24.3867 69.2483 25.25 74.3702 28.1445C75.4297 28.7461 77.2174 30.0117 79 30.0039C80.7927 30.0156 82.6155 28.7227 83.6348 28.1445C88.7568 25.25 90.2431 24.3828 91.3679 23.7031ZM79 28.75C80.165 28.7656 81.8422 27.6094 82.6858 27.1328C89.3493 23.3711 89.8565 23.043 91.393 22.1055C91.6843 21.9297 91.855 21.6562 91.855 21.3672V20.625C91.855 19.5898 90.7754 18.75 89.4447 18.75H68.5553C67.2246 18.75 66.145 19.5898 66.145 20.625V21.3672C66.145 21.6562 66.3157 21.9258 66.607 22.1055C68.1436 23.0391 68.6507 23.3711 75.3142 27.1328C76.1579 27.6094 77.835 28.7656 79 28.75Z" fill="white"/>
</svg>
