<svg width="158" height="52" viewBox="0 0 158 52" fill="none" xmlns="http://www.w3.org/2000/svg">
<rect y="0.5" width="158" height="51.5" rx="5" fill="#0077FF"/>
<path d="M91.1199 16.3478L91.0774 16.322L85.7085 13.75L79.9136 21.2631L82.5797 24.72C82.4999 26.0236 81.9314 27.2536 80.9817 28.177C80.032 29.1005 78.7671 29.6533 77.4264 29.7309L73.8715 27.1384L66.145 32.7732L68.7681 37.9502L68.7901 37.9939L68.8167 38.0351C68.9567 38.2545 69.1521 38.4353 69.3843 38.5604C69.6165 38.6855 69.8777 38.7508 70.1432 38.75H71.5285C74.1978 38.75 76.841 38.2388 79.3071 37.2455C81.7733 36.2522 84.0141 34.7963 85.9015 32.9609C87.789 31.1255 89.2863 28.9466 90.3078 26.5486C91.3293 24.1506 91.855 21.5804 91.855 18.9848V17.6376C91.8559 17.3795 91.7888 17.1255 91.6601 16.8997C91.5314 16.6739 91.3455 16.4839 91.1199 16.3478ZM89.8709 18.9848C89.8709 28.8195 81.6425 36.8207 71.5285 36.8207H70.4075L68.6525 33.3563L73.8718 29.5499L76.7777 31.669H77.1083C79.0875 31.6669 80.985 30.9014 82.3845 29.5406C83.784 28.1797 84.5712 26.3346 84.5734 24.4101V24.0886L82.3941 21.2631L86.3081 16.1882L89.8709 17.895V18.9848Z" fill="white"/>
</svg>
